<?xml version="1.0" standalone="no"?>
<!DOCTYPE svg PUBLIC "-//W3C//DTD SVG 20010904//EN"
 "http://www.w3.org/TR/2001/REC-SVG-20010904/DTD/svg10.dtd">
<svg version="1.0" xmlns="http://www.w3.org/2000/svg"
 width="512.000000pt" height="512.000000pt" viewBox="0 0 512.000000 512.000000"
 preserveAspectRatio="xMidYMid meet">
<metadata>
Created by potrace 1.14, written by Peter Selinger 2001-2017
</metadata>
<g transform="translate(0.000000,512.000000) scale(0.100000,-0.100000)"
fill="#000000" stroke="none">
<path d="M1194 4753 c-19 -4 -22 -10 -49 -105 -2 -5 -3 -9 -5 -10 -1 -2 -3
-10 -5 -18 -2 -8 -8 -37 -14 -64 -37 -159 -33 -341 11 -492 l20 -72 -50 -61
c-111 -133 -205 -335 -228 -491 -2 -14 -7 -50 -12 -80 -12 -84 -6 -288 14
-435 38 -294 166 -564 349 -735 26 -25 56 -53 66 -62 11 -10 21 -18 23 -18 2
0 28 -16 57 -36 147 -99 363 -179 589 -220 14 -2 34 -6 45 -9 11 -2 45 -7 75
-10 96 -10 95 -9 43 -73 -57 -70 -99 -158 -118 -247 -7 -37 -18 -72 -22 -76
-12 -12 -141 -56 -188 -64 -124 -21 -293 -6 -352 31 -13 8 -23 12 -23 9 0 -3
-9 -1 -20 5 -11 6 -17 16 -14 22 4 7 2 8 -5 4 -25 -16 -147 98 -210 194 -42
65 -117 158 -149 183 -12 10 -28 24 -35 32 -21 21 -118 72 -168 88 -134 45
-276 15 -240 -50 13 -25 56 -62 131 -115 115 -81 212 -208 285 -373 48 -111
90 -176 152 -240 128 -130 321 -203 535 -201 59 1 98 -3 98 -9 0 -6 4 -5 8 1
4 7 34 14 67 17 33 4 76 9 95 13 l35 6 2 -252 c1 -146 -3 -263 -8 -279 -13
-37 -38 -60 -86 -76 -32 -12 43 -13 507 -9 1023 10 1120 11 1127 18 3 3 -2 6
-11 6 -30 0 -75 32 -87 63 -9 22 -13 156 -14 506 -1 463 -1 478 -24 564 -24
94 -72 189 -126 252 -19 21 -33 40 -32 41 1 1 27 5 57 8 69 8 88 11 231 41
426 87 719 294 881 620 42 86 103 273 112 346 3 24 8 55 11 69 27 128 25 441
-3 567 -38 169 -108 316 -212 447 l-59 75 13 38 c42 121 52 336 22 483 -22
110 -55 212 -72 226 -25 20 -221 -3 -299 -35 -11 -5 -33 -14 -48 -20 -16 -6
-33 -8 -39 -5 -7 4 -8 2 -4 -4 4 -7 1 -12 -6 -12 -20 0 -202 -94 -303 -156
l-89 -56 -121 26 c-226 49 -386 66 -595 66 -161 0 -204 -3 -299 -14 -25 -3
-68 -8 -96 -11 -27 -3 -104 -17 -170 -31 -179 -38 -174 -38 -193 -21 -9 8 -30
22 -47 31 -16 9 -43 25 -60 36 -34 21 -231 120 -285 143 -123 51 -286 83 -366
70z"/>
</g>
</svg>
